<svg xmlns="http://www.w3.org/2000/svg" xmlns:xlink="http://www.w3.org/1999/xlink" width="1360" height="1760"><g transform="translate(0 0)"><path d="M880 520c0 176.73-143.27 320-320 320S240 696.73 240 520s143.27-320 320-320 320 143.27 320 320z" stroke="#000" stroke-width="2" fill="#a7d7fd"/><use xlink:href="#a" transform="matrix(1,0,0,1,245,205) translate(315 320.4)"/><path d="M800 520c0 132.55-107.45 240-240 240S320 652.55 320 520s107.45-240 240-240 240 107.45 240 240z" stroke="#000" stroke-width="2" fill="#a2fdba"/><use xlink:href="#a" transform="matrix(1,0,0,1,325,285) translate(235 240.4)"/><path d="M720 520c0 88.37-71.63 160-160 160s-160-71.63-160-160 71.63-160 160-160 160 71.63 160 160z" stroke="#000" stroke-width="2" fill="#ffa09c"/><use xlink:href="#a" transform="matrix(1,0,0,1,405,365) translate(155 160.4)"/><path d="M640 520c0 44.18-35.82 80-80 80s-80-35.82-80-80 35.82-80 80-80 80 35.82 80 80z" stroke="#000" stroke-width="2" fill="#fcfdb9"/><use xlink:href="#a" transform="matrix(1,0,0,1,485,445) translate(75 80.4)"/><path d="M440 490h240v60H440z" fill="none"/><use xlink:href="#b" transform="matrix(1,0,0,1,445,495) translate(90.07499999999999 28.6)"/><path d="M440 380h240v60H440z" fill="none"/><use xlink:href="#c" transform="matrix(1,0,0,1,445,385) translate(74.55 28.6)"/><use xlink:href="#d" transform="matrix(1,0,0,1,445,385) translate(112.5 28.6)"/><path d="M440 300h240v60H440z" fill="none"/><use xlink:href="#e" transform="matrix(1,0,0,1,445,305) translate(72.125 28.6)"/><path d="M600 260h240v60H600z" fill="none"/><use xlink:href="#f" transform="matrix(1,0,0,1,605,265) translate(96.225 28.6)"/><path d="M280 260h240v60H280z" fill="none"/><use xlink:href="#g" transform="matrix(1,0,0,1,285,265) translate(86.025 28.6)"/><path d="M240 700h240v60H240z" fill="none"/><use xlink:href="#h" transform="matrix(1,0,0,1,245,705) translate(102.05 28.6)"/><path d="M300 640h240v60H300z" fill="none"/><use xlink:href="#i" transform="matrix(1,0,0,1,305,645) translate(78.025 28.6)"/><path d="M580 640h240v60H580z" fill="none"/><use xlink:href="#j" transform="matrix(1,0,0,1,585,645) translate(73.55 28.6)"/><path d="M640 700h240v60H640z" fill="none"/><use xlink:href="#k" transform="matrix(1,0,0,1,645,705) translate(106.025 28.6)"/><path d="M290 520h60" stroke="#000" stroke-width="2" fill="none"/><path d="M350 520l-14.27 4.64v-9.28z" stroke="#000" stroke-width="2"/><path d="M370 520h60" stroke="#000" stroke-width="2" fill="none"/><path d="M430 520l-14.27 4.64v-9.28z" stroke="#000" stroke-width="2"/><path d="M450 520h60" stroke="#000" stroke-width="2" fill="none"/><path d="M510 520l-14.27 4.64v-9.28z" stroke="#000" stroke-width="2"/><path d="M960 140h240v60H960z" fill="none"/><use xlink:href="#l" transform="matrix(1,0,0,1,965,145) translate(0 28.6)"/><use xlink:href="#m" transform="matrix(1,0,0,1,965,145) translate(93.85000000000001 28.6)"/><use xlink:href="#n" transform="matrix(1,0,0,1,965,145) translate(178.70000000000002 28.6)"/><path d="M626.34 475.35L960 170" stroke="#000" stroke-width="2" fill="none"/><path d="M627.02 476.08l-.1.1-.58-.83zM960 170l-.68-.74.68-.62z"/><path d="M960 200h400v60H960z" fill="none"/><use xlink:href="#o" transform="matrix(1,0,0,1,965,205) translate(0 28.6)"/><use xlink:href="#m" transform="matrix(1,0,0,1,965,205) translate(102.7 28.6)"/><use xlink:href="#n" transform="matrix(1,0,0,1,965,205) translate(187.55 28.6)"/><path d="M704.06 450.37L960 230" stroke="#000" stroke-width="2" fill="none"/><path d="M704.72 451.13l-.2.16-.46-.93zM960 230l-.65-.76.65-.56z"/><path d="M960 260h400v60H960z" fill="none"/><use xlink:href="#p" transform="matrix(1,0,0,1,965,265) translate(0 28.6)"/><use xlink:href="#q" transform="matrix(1,0,0,1,965,265) translate(79.85000000000001 28.6)"/><path d="M786.54 440.7L960 290" stroke="#000" stroke-width="2" fill="none"/><path d="M787.2 441.47l-.3.26-.36-1.02zM960 290l-.66-.75.66-.57z"/><path d="M960 320h400v60H960z" fill="none"/><use xlink:href="#r" transform="matrix(1,0,0,1,965,325) translate(0 28.6)"/><use xlink:href="#s" transform="matrix(1,0,0,1,965,325) translate(110.9 28.6)"/><use xlink:href="#t" transform="matrix(1,0,0,1,965,325) translate(128.85000000000002 28.6)"/><path d="M867.94 432.75L960 350" stroke="#000" stroke-width="2" fill="none"/><path d="M868.6 433.5l-.34.3-.02-.04-.3-1zM960 350l-.67-.74.67-.6z"/><path d="M400 1040h240v80H400z" stroke="#000" stroke-width="2" fill="#a2fdba"/><use xlink:href="#j" transform="matrix(1,0,0,1,405,1045) translate(73.55 38.6)"/><path d="M720 1040h240v80H720z" stroke="#000" stroke-width="2" fill="#ffa09c"/><use xlink:href="#c" transform="matrix(1,0,0,1,725,1045) translate(22.224999999999994 27.799999999999997)"/><use xlink:href="#u" transform="matrix(1,0,0,1,725,1045) translate(60.175 27.799999999999997)"/><use xlink:href="#v" transform="matrix(1,0,0,1,725,1045) translate(108.125 27.799999999999997)"/><use xlink:href="#w" transform="matrix(1,0,0,1,725,1045) translate(171.875 27.799999999999997)"/><use xlink:href="#x" transform="matrix(1,0,0,1,725,1045) translate(66.625 49.4)"/><use xlink:href="#y" transform="matrix(1,0,0,1,725,1045) translate(77.575 49.4)"/><use xlink:href="#z" transform="matrix(1,0,0,1,725,1045) translate(157.425 49.4)"/><path d="M640 1080h79" stroke="#000" stroke-width="4" fill="none"/><path d="M719 1080l-14.27 4.64v-9.28z" fill="#fff"/><path d="M720 1078.22v3.56l-17.27 5.6v-14.77zm-13.27 3.66l5.8-1.88-5.8-1.88z"/><path d="M840 1200v-79" stroke="#000" stroke-width="4" fill="none"/><path d="M844.64 1135.27h-9.28L840 1121z"/><path d="M847.4 1137.27h-14.8l5.62-17.27h3.56zm-9.28-4h3.76l-1.88-5.8z"/><path d="M720 1360h240v80H720z" stroke="#000" stroke-width="2" fill="#ffa09c"/><use xlink:href="#c" transform="matrix(1,0,0,1,725,1365) translate(29.69999999999999 27.799999999999997)"/><use xlink:href="#u" transform="matrix(1,0,0,1,725,1365) translate(67.64999999999999 27.799999999999997)"/><use xlink:href="#A" transform="matrix(1,0,0,1,725,1365) translate(115.6 27.799999999999997)"/><use xlink:href="#w" transform="matrix(1,0,0,1,725,1365) translate(164.4 27.799999999999997)"/><use xlink:href="#x" transform="matrix(1,0,0,1,725,1365) translate(66.625 49.4)"/><use xlink:href="#y" transform="matrix(1,0,0,1,725,1365) translate(77.575 49.4)"/><use xlink:href="#z" transform="matrix(1,0,0,1,725,1365) translate(157.425 49.4)"/><path d="M840 1280v79" stroke="#000" stroke-width="4" fill="none"/><path d="M840 1359l-4.64-14.27h9.28z" fill="#fff"/><path d="M841.78 1360h-3.56l-5.6-17.27h14.77zm-3.66-13.27l1.88 5.8 1.88-5.8z"/><path d="M400 1360h240v80H400z" stroke="#000" stroke-width="2" fill="#a2fdba"/><g><use xlink:href="#e" transform="matrix(1,0,0,1,405,1365) translate(72.125 38.6)"/></g><path d="M640 1400h79" stroke="#000" stroke-width="4" fill="none"/><path d="M719 1400l-14.27 4.64v-9.28z"/><path d="M720 1398.22v3.56l-17.27 5.6v-14.77zm-13.27 3.66l5.8-1.88-5.8-1.88z"/><path d="M460 1210h240v60H460z" fill="none"/><g><use xlink:href="#B" transform="matrix(1,0,0,1,465,1215) translate(50.69999999999999 28.6)"/><use xlink:href="#C" transform="matrix(1,0,0,1,465,1215) translate(96.6 28.6)"/><use xlink:href="#D" transform="matrix(1,0,0,1,465,1215) translate(118.5 28.6)"/></g><path d="M520 1360l.02-.75.04-.75.08-.75.1-.75.16-.76.18-.77.22-.78.25-.8.3-.82.36-.84.42-.86.46-.9.54-.92.62-.97.7-1.03.83-1.08.94-1.16 1.12-1.22 1.28-1.3 1.52-1.44 1.8-1.55 2.15-1.7 2.6-1.9 3.22-2.12 4-2.4 5.1-2.82 6.7-3.32 9.13-4.04 13.14-5.18 21.18-7.33 125.65-37.93 9.04-3.56 5.95-2.63 4.18-2.08 3.1-1.7 2.35-1.43 1.84-1.22 1.47-1.07 1.2-.94.97-.84.83-.77.68-.7.6-.63.48-.6.42-.55.36-.52.3-.5.28-.45.23-.44.2-.43.17-.4.15-.4.1-.37.12-.38.08-.36.07-.37.05-.35.04-.35.02-.35v-.69l-.02-.36-.04-.35-.05-.36-.07-.36-.08-.37-.1-.36-.13-.4-.16-.38-.17-.4-.2-.44-.24-.45-.27-.46-.3-.5-.37-.5-.43-.57-.5-.6-.58-.64-.7-.7-.8-.77-1-.85-1.2-.94-1.45-1.06-1.25-.85-5.87-3.65-6.9-3.9-8.25-4.2-10.14-4.67-13-5.3-18-6.5-33.06-10.3-69.5-20.63-13.7-4.93-9.2-3.78-6.85-3.13-5.34-2.73-4.3-2.43-3.54-2.2-2.97-2.02-2.54-1.88-2.17-1.76-1.9-1.66-1.64-1.58-1.45-1.52-1.27-1.46-1.14-1.4-1.02-1.38-.9-1.33-.82-1.32-.72-1.3-.65-1.26-.6-1.28-.5-1.26-.45-1.27-.4-1.27-.34-1.28-.27-1.3-.24-1.3-.2-1.35-.1-1.37-.08-1.4-.02-1.03" stroke="#e8a6e3" stroke-width="4" fill="none"/><path d="M520 1360h-2.15l.3-.74zM527.76 1133.83l-9.02 2.12L520 1121z" fill="#e8a6e3"/><path d="M530.9 1135.15l-14.4 3.37 1.58-18.52h3.65zm-9.94-1.78l3.67-.86-3.16-5.2z" fill="#e8a6e3"/><path d="M720 1200h240v80H720z" stroke="#000" stroke-width="2" fill="#ffa09c"/><g><use xlink:href="#c" transform="matrix(1,0,0,1,725,1205) translate(30.64999999999999 38.6)"/><use xlink:href="#u" transform="matrix(1,0,0,1,725,1205) translate(68.6 38.6)"/><use xlink:href="#E" transform="matrix(1,0,0,1,725,1205) translate(116.55 38.6)"/></g><defs><path d="M24 0v-248h195v40H76v63h132v40H76v65h150V0H24" id="F"/><path d="M135-194c87-1 58 113 63 194h-50c-7-57 23-157-34-157-59 0-34 97-39 157H25l-1-190h47c2 12-1 28 3 38 12-26 28-41 61-42" id="G"/><path d="M115-3C79 11 28 4 28-45v-112H4v-33h27l15-45h31v45h36v33H77v99c-1 23 16 31 38 25v30" id="H"/><path d="M25-224v-37h50v37H25zM25 0v-190h50V0H25" id="I"/><path d="M123 10C108 53 80 86 19 72V37c35 8 53-11 59-39L3-190h52l48 148c12-52 28-100 44-148h51" id="J"/><g id="b"><use transform="matrix(0.05,0,0,0.05,0,0)" xlink:href="#F"/><use transform="matrix(0.05,0,0,0.05,12,0)" xlink:href="#G"/><use transform="matrix(0.05,0,0,0.05,22.950000000000003,0)" xlink:href="#H"/><use transform="matrix(0.05,0,0,0.05,28.900000000000002,0)" xlink:href="#I"/><use transform="matrix(0.05,0,0,0.05,33.900000000000006,0)" xlink:href="#H"/><use transform="matrix(0.05,0,0,0.05,39.85000000000001,0)" xlink:href="#J"/></g><path d="M238-95c0 69-44 99-111 99C63 4 22-25 22-93v-155h51v151c-1 38 19 59 55 60 90 1 49-130 58-211h52v153" id="K"/><path d="M137-138c1-29-70-34-71-4 15 46 118 7 119 86 1 83-164 76-172 9l43-7c4 19 20 25 44 25 33 8 57-30 24-41C81-84 22-81 20-136c-2-80 154-74 161-7" id="L"/><path d="M185-48c-13 30-37 53-82 52C43 2 14-33 14-96s30-98 90-98c62 0 83 45 84 108H66c0 31 8 55 39 56 18 0 30-7 34-22zm-45-69c5-46-57-63-70-21-2 6-4 13-4 21h74" id="M"/><g id="c"><use transform="matrix(0.05,0,0,0.05,0,0)" xlink:href="#K"/><use transform="matrix(0.05,0,0,0.05,12.950000000000001,0)" xlink:href="#L"/><use transform="matrix(0.05,0,0,0.05,22.950000000000003,0)" xlink:href="#M"/></g><path d="M67-125c0 53 21 87 73 88 37 1 54-22 65-47l45 17C233-25 199 4 140 4 58 4 20-42 15-125 8-235 124-281 211-232c18 10 29 29 36 50l-46 12c-8-25-30-41-62-41-52 0-71 34-72 86" id="N"/><path d="M133-34C117-15 103 5 69 4 32 3 11-16 11-54c-1-60 55-63 116-61 1-26-3-47-28-47-18 1-26 9-28 27l-52-2c7-38 36-58 82-57s74 22 75 68l1 82c-1 14 12 18 25 15v27c-30 8-71 5-69-32zm-48 3c29 0 43-24 42-57-32 0-66-3-65 30 0 17 8 27 23 27" id="O"/><g id="d"><use transform="matrix(0.05,0,0,0.05,0,0)" xlink:href="#N"/><use transform="matrix(0.05,0,0,0.05,12.950000000000001,0)" xlink:href="#O"/><use transform="matrix(0.05,0,0,0.05,22.950000000000003,0)" xlink:href="#L"/><use transform="matrix(0.05,0,0,0.05,32.95,0)" xlink:href="#M"/></g><path d="M110-194c64 0 96 36 96 99 0 64-35 99-97 99-61 0-95-36-95-99 0-62 34-99 96-99zm-1 164c35 0 45-28 45-65 0-40-10-65-43-65-34 0-45 26-45 65 0 36 10 65 43 65" id="P"/><path d="M135-150c-39-12-60 13-60 57V0H25l-1-190h47c2 13-1 29 3 40 6-28 27-53 61-41v41" id="Q"/><path d="M25 0v-261h50V0H25" id="R"/><g id="e"><use transform="matrix(0.05,0,0,0.05,0,0)" xlink:href="#N"/><use transform="matrix(0.05,0,0,0.05,12.950000000000001,0)" xlink:href="#P"/><use transform="matrix(0.05,0,0,0.05,23.900000000000002,0)" xlink:href="#G"/><use transform="matrix(0.05,0,0,0.05,34.85,0)" xlink:href="#H"/><use transform="matrix(0.05,0,0,0.05,40.800000000000004,0)" xlink:href="#Q"/><use transform="matrix(0.05,0,0,0.05,47.800000000000004,0)" xlink:href="#P"/><use transform="matrix(0.05,0,0,0.05,58.75,0)" xlink:href="#R"/><use transform="matrix(0.05,0,0,0.05,63.75,0)" xlink:href="#R"/><use transform="matrix(0.05,0,0,0.05,68.75,0)" xlink:href="#M"/><use transform="matrix(0.05,0,0,0.05,78.75,0)" xlink:href="#Q"/></g><path d="M275 0h-61l-44-196L126 0H64L0-248h53L97-49l45-199h58l43 199 44-199h52" id="S"/><path d="M135-194c52 0 70 43 70 98 0 56-19 99-73 100-30 1-46-15-58-35L72 0H24l1-261h50v104c11-23 29-37 60-37zM114-30c31 0 40-27 40-66 0-37-7-63-39-63s-41 28-41 65c0 36 8 64 40 64" id="T"/><g id="f"><use transform="matrix(0.05,0,0,0.05,0,0)" xlink:href="#S"/><use transform="matrix(0.05,0,0,0.05,16.599999999999998,0)" xlink:href="#M"/><use transform="matrix(0.05,0,0,0.05,26.599999999999994,0)" xlink:href="#T"/></g><path d="M24-248c120-7 223 5 221 122C244-46 201 0 124 0H24v-248zM76-40c74 7 117-18 117-86 0-67-45-88-117-82v168" id="U"/><path d="M128 0H69L1-190h53L99-40l48-150h52" id="V"/><path d="M190-63c-7 42-38 67-86 67-59 0-84-38-90-98-12-110 154-137 174-36l-49 2c-2-19-15-32-35-32-30 0-35 28-38 64-6 74 65 87 74 30" id="W"/><g id="g"><use transform="matrix(0.05,0,0,0.05,0,0)" xlink:href="#U"/><use transform="matrix(0.05,0,0,0.05,12.950000000000001,0)" xlink:href="#M"/><use transform="matrix(0.05,0,0,0.05,22.950000000000003,0)" xlink:href="#V"/><use transform="matrix(0.05,0,0,0.05,32.95,0)" xlink:href="#I"/><use transform="matrix(0.05,0,0,0.05,37.95,0)" xlink:href="#W"/><use transform="matrix(0.05,0,0,0.05,47.95,0)" xlink:href="#M"/></g><path d="M182-130c37 4 62 22 62 59C244 23 116-4 24 0v-248c84 5 203-23 205 63 0 31-19 50-47 55zM76-148c40-3 101 13 101-30 0-44-60-28-101-31v61zm0 110c48-3 116 14 116-37 0-48-69-32-116-35v72" id="X"/><g id="h"><use transform="matrix(0.05,0,0,0.05,0,0)" xlink:href="#U"/><use transform="matrix(0.05,0,0,0.05,12.950000000000001,0)" xlink:href="#X"/></g><path d="M67-125c0 54 23 88 75 88 28 0 53-7 68-21v-34h-60v-39h108v91C232-14 192 4 140 4 58 4 20-42 15-125 8-236 126-280 215-234c19 10 29 26 37 47l-47 15c-11-23-29-39-63-39-53 1-75 33-75 86" id="Y"/><path d="M231 0h-52l-39-155L100 0H48L-1-190h46L77-45c9-52 24-97 36-145h53l37 145 32-145h46" id="Z"/><g id="i"><use transform="matrix(0.05,0,0,0.05,0,0)" xlink:href="#Y"/><use transform="matrix(0.05,0,0,0.05,14,0)" xlink:href="#O"/><use transform="matrix(0.05,0,0,0.05,24,0)" xlink:href="#H"/><use transform="matrix(0.05,0,0,0.05,29.950000000000003,0)" xlink:href="#M"/><use transform="matrix(0.05,0,0,0.05,39.95,0)" xlink:href="#Z"/><use transform="matrix(0.05,0,0,0.05,53.95,0)" xlink:href="#O"/><use transform="matrix(0.05,0,0,0.05,63.95,0)" xlink:href="#J"/></g><path d="M24-248c93 1 206-16 204 79-1 75-69 88-152 82V0H24v-248zm52 121c47 0 100 7 100-41 0-47-54-39-100-39v80" id="aa"/><g id="j"><use transform="matrix(0.05,0,0,0.05,0,0)" xlink:href="#aa"/><use transform="matrix(0.05,0,0,0.05,12,0)" xlink:href="#Q"/><use transform="matrix(0.05,0,0,0.05,19,0)" xlink:href="#M"/><use transform="matrix(0.05,0,0,0.05,29,0)" xlink:href="#L"/><use transform="matrix(0.05,0,0,0.05,39,0)" xlink:href="#M"/><use transform="matrix(0.05,0,0,0.05,49,0)" xlink:href="#G"/><use transform="matrix(0.05,0,0,0.05,59.95,0)" xlink:href="#H"/><use transform="matrix(0.05,0,0,0.05,65.9,0)" xlink:href="#M"/><use transform="matrix(0.05,0,0,0.05,75.9,0)" xlink:href="#Q"/></g><path d="M24 0v-248h52V0H24" id="ab"/><g id="k"><use transform="matrix(0.05,0,0,0.05,0,0)" xlink:href="#K"/><use transform="matrix(0.05,0,0,0.05,12.950000000000001,0)" xlink:href="#ab"/></g><path d="M135-194c53 0 70 44 70 98 0 56-19 98-73 100-31 1-45-17-59-34 3 33 2 69 2 105H25l-1-265h48c2 10 0 23 3 31 11-24 29-35 60-35zM114-30c33 0 39-31 40-66 0-38-9-64-40-64-56 0-55 130 0 130" id="ac"/><g id="l"><use transform="matrix(0.05,0,0,0.05,0,0)" xlink:href="#F"/><use transform="matrix(0.05,0,0,0.05,12,0)" xlink:href="#G"/><use transform="matrix(0.05,0,0,0.05,22.950000000000003,0)" xlink:href="#H"/><use transform="matrix(0.05,0,0,0.05,28.900000000000002,0)" xlink:href="#M"/><use transform="matrix(0.05,0,0,0.05,38.900000000000006,0)" xlink:href="#Q"/><use transform="matrix(0.05,0,0,0.05,45.900000000000006,0)" xlink:href="#ac"/><use transform="matrix(0.05,0,0,0.05,56.85,0)" xlink:href="#Q"/><use transform="matrix(0.05,0,0,0.05,63.85,0)" xlink:href="#I"/><use transform="matrix(0.05,0,0,0.05,68.85000000000001,0)" xlink:href="#L"/><use transform="matrix(0.05,0,0,0.05,78.85000000000001,0)" xlink:href="#M"/></g><path d="M85 4C-2 5 27-109 22-190h50c7 57-23 150 33 157 60-5 35-97 40-157h50l1 190h-47c-2-12 1-28-3-38-12 25-28 42-61 42" id="ad"/><g id="m"><use transform="matrix(0.05,0,0,0.05,0,0)" xlink:href="#X"/><use transform="matrix(0.05,0,0,0.05,12.950000000000001,0)" xlink:href="#ad"/><use transform="matrix(0.05,0,0,0.05,23.900000000000002,0)" xlink:href="#L"/><use transform="matrix(0.05,0,0,0.05,33.900000000000006,0)" xlink:href="#I"/><use transform="matrix(0.05,0,0,0.05,38.900000000000006,0)" xlink:href="#G"/><use transform="matrix(0.05,0,0,0.05,49.85000000000001,0)" xlink:href="#M"/><use transform="matrix(0.05,0,0,0.05,59.85,0)" xlink:href="#L"/><use transform="matrix(0.05,0,0,0.05,69.85000000000001,0)" xlink:href="#L"/></g><path d="M240-174c0 40-23 61-54 70L253 0h-59l-57-94H76V0H24v-248c93 4 217-23 216 74zM76-134c48-2 112 12 112-38 0-48-66-32-112-35v73" id="ae"/><g id="n"><use transform="matrix(0.05,0,0,0.05,0,0)" xlink:href="#ae"/><use transform="matrix(0.05,0,0,0.05,12.950000000000001,0)" xlink:href="#ad"/><use transform="matrix(0.05,0,0,0.05,23.900000000000002,0)" xlink:href="#R"/><use transform="matrix(0.05,0,0,0.05,28.900000000000002,0)" xlink:href="#M"/><use transform="matrix(0.05,0,0,0.05,38.900000000000006,0)" xlink:href="#L"/></g><path d="M199 0l-22-63H83L61 0H9l90-248h61L250 0h-51zm-33-102l-36-108c-10 38-24 72-36 108h72" id="af"/><g id="o"><use transform="matrix(0.05,0,0,0.05,0,0)" xlink:href="#af"/><use transform="matrix(0.05,0,0,0.05,12.950000000000001,0)" xlink:href="#ac"/><use transform="matrix(0.05,0,0,0.05,23.900000000000002,0)" xlink:href="#ac"/><use transform="matrix(0.05,0,0,0.05,34.85,0)" xlink:href="#R"/><use transform="matrix(0.05,0,0,0.05,39.85,0)" xlink:href="#I"/><use transform="matrix(0.05,0,0,0.05,44.85,0)" xlink:href="#W"/><use transform="matrix(0.05,0,0,0.05,54.85,0)" xlink:href="#O"/><use transform="matrix(0.05,0,0,0.05,64.85,0)" xlink:href="#H"/><use transform="matrix(0.05,0,0,0.05,70.8,0)" xlink:href="#I"/><use transform="matrix(0.05,0,0,0.05,75.8,0)" xlink:href="#P"/><use transform="matrix(0.05,0,0,0.05,86.75,0)" xlink:href="#G"/></g><path d="M121-226c-27-7-43 5-38 36h38v33H83V0H34v-157H6v-33h28c-9-59 32-81 87-68v32" id="ag"/><g id="p"><use transform="matrix(0.05,0,0,0.05,0,0)" xlink:href="#ab"/><use transform="matrix(0.05,0,0,0.05,5,0)" xlink:href="#G"/><use transform="matrix(0.05,0,0,0.05,15.950000000000001,0)" xlink:href="#H"/><use transform="matrix(0.05,0,0,0.05,21.900000000000002,0)" xlink:href="#M"/><use transform="matrix(0.05,0,0,0.05,31.900000000000002,0)" xlink:href="#Q"/><use transform="matrix(0.05,0,0,0.05,38.900000000000006,0)" xlink:href="#ag"/><use transform="matrix(0.05,0,0,0.05,44.85000000000001,0)" xlink:href="#O"/><use transform="matrix(0.05,0,0,0.05,54.85,0)" xlink:href="#W"/><use transform="matrix(0.05,0,0,0.05,64.85000000000001,0)" xlink:href="#M"/></g><path d="M88-194c31-1 46 15 58 34l-1-101h50l1 261h-48c-2-10 0-23-3-31C134-8 116 4 84 4 32 4 16-41 15-95c0-56 19-97 73-99zm17 164c33 0 40-30 41-66 1-37-9-64-41-64s-38 30-39 65c0 43 13 65 39 65" id="ah"/><g id="q"><use transform="matrix(0.05,0,0,0.05,0,0)" xlink:href="#af"/><use transform="matrix(0.05,0,0,0.05,12.950000000000001,0)" xlink:href="#ah"/><use transform="matrix(0.05,0,0,0.05,23.900000000000002,0)" xlink:href="#O"/><use transform="matrix(0.05,0,0,0.05,33.900000000000006,0)" xlink:href="#ac"/><use transform="matrix(0.05,0,0,0.05,44.85000000000001,0)" xlink:href="#H"/><use transform="matrix(0.05,0,0,0.05,50.80000000000001,0)" xlink:href="#M"/><use transform="matrix(0.05,0,0,0.05,60.80000000000001,0)" xlink:href="#Q"/><use transform="matrix(0.05,0,0,0.05,67.80000000000001,0)" xlink:href="#L"/></g><path d="M76-208v77h127v40H76V0H24v-248h183v40H76" id="ai"/><path d="M220-157c-53 9-28 100-34 157h-49v-107c1-27-5-49-29-50C55-147 81-57 75 0H25l-1-190h47c2 12-1 28 3 38 10-53 101-56 108 0 13-22 24-43 59-42 82 1 51 116 57 194h-49v-107c-1-25-5-48-29-50" id="aj"/><path d="M147 0L96-86 75-71V0H25v-261h50v150l67-79h53l-66 74L201 0h-54" id="ak"/><g id="r"><use transform="matrix(0.05,0,0,0.05,0,0)" xlink:href="#ai"/><use transform="matrix(0.05,0,0,0.05,10.950000000000001,0)" xlink:href="#Q"/><use transform="matrix(0.05,0,0,0.05,17.950000000000003,0)" xlink:href="#O"/><use transform="matrix(0.05,0,0,0.05,27.950000000000003,0)" xlink:href="#aj"/><use transform="matrix(0.05,0,0,0.05,43.95,0)" xlink:href="#M"/><use transform="matrix(0.05,0,0,0.05,53.95,0)" xlink:href="#Z"/><use transform="matrix(0.05,0,0,0.05,67.95,0)" xlink:href="#P"/><use transform="matrix(0.05,0,0,0.05,78.9,0)" xlink:href="#Q"/><use transform="matrix(0.05,0,0,0.05,85.9,0)" xlink:href="#ak"/><use transform="matrix(0.05,0,0,0.05,95.9,0)" xlink:href="#L"/></g><path d="M168-19C124 19 11 11 16-68c3-43 29-60 59-75-25-44-12-111 53-106 37 3 64 15 64 52 0 43-40 52-69 68 12 22 27 41 43 59 14-19 21-38 28-64l37 13c-8 29-19 52-34 74 12 10 32 16 52 10v35c-28 11-65-2-81-17zm-58-139c19-9 43-14 43-39 0-14-10-22-25-22-34 0-33 41-18 61zM60-68c-3 40 55 47 79 25-18-20-34-42-48-67-18 8-30 20-31 42" id="al"/><use transform="matrix(0.05,0,0,0.05,0,0)" xlink:href="#al" id="s"/><g id="t"><use transform="matrix(0.05,0,0,0.05,0,0)" xlink:href="#U"/><use transform="matrix(0.05,0,0,0.05,12.950000000000001,0)" xlink:href="#Q"/><use transform="matrix(0.05,0,0,0.05,19.950000000000003,0)" xlink:href="#I"/><use transform="matrix(0.05,0,0,0.05,24.950000000000003,0)" xlink:href="#V"/><use transform="matrix(0.05,0,0,0.05,34.95,0)" xlink:href="#M"/><use transform="matrix(0.05,0,0,0.05,44.95,0)" xlink:href="#Q"/><use transform="matrix(0.05,0,0,0.05,51.95,0)" xlink:href="#L"/></g><g id="u"><use transform="matrix(0.05,0,0,0.05,0,0)" xlink:href="#N"/><use transform="matrix(0.05,0,0,0.05,12.950000000000001,0)" xlink:href="#O"/><use transform="matrix(0.05,0,0,0.05,22.950000000000003,0)" xlink:href="#L"/><use transform="matrix(0.05,0,0,0.05,32.95,0)" xlink:href="#M"/></g><path d="M140-251c80 0 125 45 125 126S219 4 139 4C58 4 15-44 15-125s44-126 125-126zm-1 214c52 0 73-35 73-88 0-50-21-86-72-86-52 0-73 35-73 86s22 88 72 88" id="am"/><g id="v"><use transform="matrix(0.05,0,0,0.05,0,0)" xlink:href="#am"/><use transform="matrix(0.05,0,0,0.05,14,0)" xlink:href="#ad"/><use transform="matrix(0.05,0,0,0.05,24.950000000000003,0)" xlink:href="#H"/><use transform="matrix(0.05,0,0,0.05,30.900000000000002,0)" xlink:href="#ac"/><use transform="matrix(0.05,0,0,0.05,41.85,0)" xlink:href="#ad"/><use transform="matrix(0.05,0,0,0.05,52.800000000000004,0)" xlink:href="#H"/></g><g id="w"><use transform="matrix(0.05,0,0,0.05,0,0)" xlink:href="#aa"/><use transform="matrix(0.05,0,0,0.05,12,0)" xlink:href="#P"/><use transform="matrix(0.05,0,0,0.05,22.950000000000003,0)" xlink:href="#Q"/><use transform="matrix(0.05,0,0,0.05,29.950000000000003,0)" xlink:href="#H"/></g><path d="M67-93c0 74 22 123 53 168H70C40 30 18-18 18-93s22-123 52-168h50c-32 44-53 94-53 168" id="an"/><use transform="matrix(0.05,0,0,0.05,0,0)" xlink:href="#an" id="x"/><g id="y"><use transform="matrix(0.05,0,0,0.05,0,0)" xlink:href="#ab"/><use transform="matrix(0.05,0,0,0.05,5,0)" xlink:href="#G"/><use transform="matrix(0.05,0,0,0.05,15.950000000000001,0)" xlink:href="#H"/><use transform="matrix(0.05,0,0,0.05,21.900000000000002,0)" xlink:href="#M"/><use transform="matrix(0.05,0,0,0.05,31.900000000000002,0)" xlink:href="#Q"/><use transform="matrix(0.05,0,0,0.05,38.900000000000006,0)" xlink:href="#ag"/><use transform="matrix(0.05,0,0,0.05,44.85000000000001,0)" xlink:href="#O"/><use transform="matrix(0.05,0,0,0.05,54.85,0)" xlink:href="#W"/><use transform="matrix(0.05,0,0,0.05,64.85000000000001,0)" xlink:href="#M"/></g><path d="M102-93c0 74-22 123-52 168H0C30 29 54-18 53-93c0-74-22-123-53-168h50c30 45 52 94 52 168" id="ao"/><use transform="matrix(0.05,0,0,0.05,0,0)" xlink:href="#ao" id="z"/><g id="A"><use transform="matrix(0.05,0,0,0.05,0,0)" xlink:href="#ab"/><use transform="matrix(0.05,0,0,0.05,5,0)" xlink:href="#G"/><use transform="matrix(0.05,0,0,0.05,15.950000000000001,0)" xlink:href="#ac"/><use transform="matrix(0.05,0,0,0.05,26.900000000000002,0)" xlink:href="#ad"/><use transform="matrix(0.05,0,0,0.05,37.85,0)" xlink:href="#H"/></g><path fill="#e8a6e3" d="M76-208v77h127v40H76V0H24v-248h183v40H76" id="ap"/><path fill="#e8a6e3" d="M25 0v-261h50V0H25" id="aq"/><path fill="#e8a6e3" d="M110-194c64 0 96 36 96 99 0 64-35 99-97 99-61 0-95-36-95-99 0-62 34-99 96-99zm-1 164c35 0 45-28 45-65 0-40-10-65-43-65-34 0-45 26-45 65 0 36 10 65 43 65" id="ar"/><path fill="#e8a6e3" d="M231 0h-52l-39-155L100 0H48L-1-190h46L77-45c9-52 24-97 36-145h53l37 145 32-145h46" id="as"/><g id="B"><use transform="matrix(0.05,0,0,0.05,0,0)" xlink:href="#ap"/><use transform="matrix(0.05,0,0,0.05,10.950000000000001,0)" xlink:href="#aq"/><use transform="matrix(0.05,0,0,0.05,15.950000000000001,0)" xlink:href="#ar"/><use transform="matrix(0.05,0,0,0.05,26.900000000000002,0)" xlink:href="#as"/></g><path fill="#e8a6e3" d="M121-226c-27-7-43 5-38 36h38v33H83V0H34v-157H6v-33h28c-9-59 32-81 87-68v32" id="at"/><g id="C"><use transform="matrix(0.05,0,0,0.05,0,0)" xlink:href="#ar"/><use transform="matrix(0.05,0,0,0.05,10.950000000000001,0)" xlink:href="#at"/></g><path fill="#e8a6e3" d="M190-63c-7 42-38 67-86 67-59 0-84-38-90-98-12-110 154-137 174-36l-49 2c-2-19-15-32-35-32-30 0-35 28-38 64-6 74 65 87 74 30" id="au"/><path fill="#e8a6e3" d="M135-194c87-1 58 113 63 194h-50c-7-57 23-157-34-157-59 0-34 97-39 157H25l-1-190h47c2 12-1 28 3 38 12-26 28-41 61-42" id="av"/><path fill="#e8a6e3" d="M115-3C79 11 28 4 28-45v-112H4v-33h27l15-45h31v45h36v33H77v99c-1 23 16 31 38 25v30" id="aw"/><path fill="#e8a6e3" d="M135-150c-39-12-60 13-60 57V0H25l-1-190h47c2 13-1 29 3 40 6-28 27-53 61-41v41" id="ax"/><g id="D"><use transform="matrix(0.05,0,0,0.05,0,0)" xlink:href="#au"/><use transform="matrix(0.05,0,0,0.05,10,0)" xlink:href="#ar"/><use transform="matrix(0.05,0,0,0.05,20.950000000000003,0)" xlink:href="#av"/><use transform="matrix(0.05,0,0,0.05,31.900000000000006,0)" xlink:href="#aw"/><use transform="matrix(0.05,0,0,0.05,37.85000000000001,0)" xlink:href="#ax"/><use transform="matrix(0.05,0,0,0.05,44.85000000000001,0)" xlink:href="#ar"/><use transform="matrix(0.05,0,0,0.05,55.80000000000001,0)" xlink:href="#aq"/></g><g id="E"><use transform="matrix(0.05,0,0,0.05,0,0)" xlink:href="#ab"/><use transform="matrix(0.05,0,0,0.05,5,0)" xlink:href="#G"/><use transform="matrix(0.05,0,0,0.05,15.950000000000001,0)" xlink:href="#H"/><use transform="matrix(0.05,0,0,0.05,21.900000000000002,0)" xlink:href="#M"/><use transform="matrix(0.05,0,0,0.05,31.900000000000002,0)" xlink:href="#Q"/><use transform="matrix(0.05,0,0,0.05,38.900000000000006,0)" xlink:href="#O"/><use transform="matrix(0.05,0,0,0.05,48.900000000000006,0)" xlink:href="#W"/><use transform="matrix(0.05,0,0,0.05,58.900000000000006,0)" xlink:href="#H"/><use transform="matrix(0.05,0,0,0.05,64.85000000000001,0)" xlink:href="#P"/><use transform="matrix(0.05,0,0,0.05,75.80000000000001,0)" xlink:href="#Q"/></g></defs></g></svg>